<svg width="20" height="20" viewBox="0 0 20 20" fill="none" xmlns="http://www.w3.org/2000/svg">
<path d="M15.8917 4.10812C16.7047 4.91851 17.3403 5.88904 17.7584 6.95812L14.7167 9.99978L6.95837 2.24145C8.46761 1.65003 10.1166 1.51162 11.7033 1.84317C13.29 2.17472 14.7456 2.96184 15.8917 4.10812ZM2.2417 13.0414C2.64097 14.0643 3.23843 14.9981 3.99975 15.7893C4.76107 16.5804 5.67123 17.2134 6.67793 17.6517C7.68464 18.09 8.76803 18.325 9.86586 18.3433C10.9637 18.3615 12.0543 18.1627 13.075 17.7581L5.28337 9.99978L2.2417 13.0414Z" fill="#7E8299"/>
<path opacity="0.3" d="M6.95825 2.24134L9.99992 5.28301L2.24158 13.0413C1.83702 12.0206 1.63816 10.93 1.65643 9.83217C1.6747 8.73434 1.90974 7.65095 2.34804 6.64424C2.78634 5.63754 3.41927 4.72738 4.21044 3.96606C5.00161 3.20474 5.93544 2.60728 6.95825 2.20801V2.24134ZM9.99992 14.7413L13.0416 17.783C14.0644 17.3837 14.9982 16.7863 15.7894 16.025C16.5806 15.2636 17.2135 14.3535 17.6518 13.3468C18.0901 12.3401 18.3251 11.2567 18.3434 10.1588C18.3617 9.06102 18.1628 7.9704 17.7582 6.94967L9.99992 14.7413Z" fill="#7E8299"/>
</svg>
