<svg width="30" height="30" viewBox="0 0 30 30" fill="none" xmlns="http://www.w3.org/2000/svg">
<rect width="30" height="30" rx="8" fill="#FFFAF2"/>
<path opacity="0.3" d="M23.05 13.6999L22.2334 17.1833C21.5334 20.1916 20.15 21.4083 17.55 21.1583C17.1334 21.1249 16.6834 21.0499 16.2 20.9333L14.8 20.5999C11.325 19.7749 10.25 18.0583 11.0667 14.5749L11.8834 11.0833C12.05 10.3749 12.25 9.75826 12.5 9.24993C13.475 7.23326 15.1334 6.69159 17.9167 7.34993L19.3084 7.67493C22.8 8.49159 23.8667 10.2166 23.05 13.6999Z" fill="#FF9F0A"/>
<path d="M17.55 21.1583C17.0333 21.5083 16.3833 21.8 15.5916 22.0583L14.275 22.4917C10.9666 23.5583 9.22498 22.6667 8.14998 19.3583L7.08331 16.0667C6.01665 12.7583 6.89998 11.0083 10.2083 9.94167L11.525 9.50833C11.8666 9.4 12.1916 9.30833 12.5 9.25C12.25 9.75833 12.05 10.375 11.8833 11.0833L11.0666 14.575C10.25 18.0583 11.325 19.775 14.8 20.6L16.2 20.9333C16.6833 21.05 17.1333 21.125 17.55 21.1583Z" fill="#FF9F0A"/>
<path d="M19.575 13.7581C19.525 13.7581 19.475 13.7498 19.4167 13.7415L15.375 12.7165C15.0417 12.6331 14.8417 12.2915 14.925 11.9581C15.0083 11.6248 15.35 11.4248 15.6833 11.5081L19.725 12.5331C20.0583 12.6165 20.2583 12.9581 20.175 13.2915C20.1083 13.5665 19.85 13.7581 19.575 13.7581Z" fill="#FF9F0A"/>
<path d="M17.1333 16.5749C17.0833 16.5749 17.0333 16.5666 16.975 16.5582L14.55 15.9416C14.2167 15.8582 14.0167 15.5166 14.1 15.1832C14.1833 14.8499 14.525 14.6499 14.8583 14.7332L17.2833 15.3499C17.6167 15.4332 17.8167 15.7749 17.7333 16.1082C17.6667 16.3916 17.4167 16.5749 17.1333 16.5749Z" fill="#FF9F0A"/>
</svg>
