<svg width="20" height="20" viewBox="0 0 20 20" fill="none" xmlns="http://www.w3.org/2000/svg">
<path d="M9.27497 13.2334C9.06663 13.2334 8.8583 13.1251 8.74163 12.9334C8.56663 12.6417 8.6583 12.2501 8.9583 12.0751L9.69997 11.6334V10.7334C9.69997 10.3917 9.9833 10.1084 10.325 10.1084C10.6666 10.1084 10.95 10.3917 10.95 10.7334V11.9834C10.95 12.2001 10.8333 12.4084 10.65 12.5167L9.6083 13.1417C9.49163 13.2001 9.3833 13.2334 9.27497 13.2334Z" fill="#7E8299"/>
<path opacity="0.2" d="M18.2082 9.5083L17.6915 15.1583C17.5165 16.825 16.8332 18.525 13.1665 18.525H6.8165C3.14984 18.525 2.4665 16.825 2.29984 15.1666L1.7915 9.74163C1.79984 9.74997 1.80817 9.7583 1.82484 9.76663C2.10817 9.94997 2.38317 10.1333 2.68317 10.3C2.79984 10.375 2.92484 10.4416 3.04984 10.5083C3.9915 11.025 4.99984 11.4333 6.0415 11.7166C6.45817 11.8416 6.88317 11.9333 7.3165 12.0083C7.48317 13.3416 8.62484 14.375 9.99984 14.375C11.3915 14.375 12.5415 13.3166 12.6915 11.9583V11.95C13.1165 11.8666 13.5415 11.7583 13.9582 11.6333C14.9998 11.3083 16.0082 10.875 16.9498 10.325C16.9998 10.3 17.0415 10.275 17.0748 10.25C17.4582 10.0416 17.8248 9.79997 18.1748 9.54997C18.1915 9.54163 18.1998 9.52497 18.2082 9.5083Z" fill="#7E8299"/>
<path d="M17.5751 5.81676C16.8668 5.03343 15.6918 4.64176 13.9668 4.64176H13.7668V4.60843C13.7668 3.20843 13.7668 1.4751 10.6334 1.4751H9.36678C6.23345 1.4751 6.23345 3.20843 6.23345 4.60843V4.64176H6.03345C4.30845 4.64176 3.12511 5.03343 2.42511 5.81676C1.60011 6.74176 1.62511 7.96676 1.70845 8.80843L1.71678 8.86677L1.79178 9.74176C1.80011 9.7501 1.81678 9.75843 1.83345 9.76676C2.11678 9.9501 2.39178 10.1334 2.69178 10.3001C2.80845 10.3751 2.93345 10.4418 3.05845 10.5084C4.00011 11.0251 5.00845 11.4334 6.04178 11.7168C6.06678 13.8751 7.83345 15.6251 10.0001 15.6251C12.1834 15.6251 13.9584 13.8501 13.9584 11.6668V11.6334C15.0084 11.3168 16.0168 10.8751 16.9584 10.3251C17.0084 10.3001 17.0418 10.2751 17.0834 10.2501C17.4668 10.0418 17.8334 9.8001 18.1834 9.5501C18.1918 9.54176 18.2084 9.5251 18.2168 9.50843L18.2501 9.20843L18.2918 8.81676C18.3001 8.76676 18.3001 8.7251 18.3084 8.66676C18.3751 7.83343 18.3584 6.68343 17.5751 5.81676ZM7.42511 4.60843C7.42511 3.19176 7.42511 2.65843 9.36678 2.65843H10.6334C12.5751 2.65843 12.5751 3.19176 12.5751 4.60843V4.64176H7.42511V4.60843ZM10.0001 14.3751C8.62511 14.3751 7.48345 13.3418 7.31678 12.0084C7.30011 11.9001 7.29178 11.7834 7.29178 11.6668C7.29178 10.1751 8.50845 8.95843 10.0001 8.95843C11.4918 8.95843 12.7084 10.1751 12.7084 11.6668C12.7084 11.7668 12.7001 11.8584 12.6918 11.9501V11.9584C12.5418 13.3168 11.3918 14.3751 10.0001 14.3751Z" fill="#7E8299"/>
</svg>
