<svg width="20" height="20" viewBox="0 0 20 20" fill="none" xmlns="http://www.w3.org/2000/svg">
<path opacity="0.2" d="M1.75 18.3333V5.02498C1.75 3.34998 2.58338 2.5083 4.24171 2.5083H9.43336C11.0917 2.5083 11.9167 3.34998 11.9167 5.02498V18.3333" fill="#7E8299"/>
<path d="M8.95851 7.5H4.8335C4.49183 7.5 4.2085 7.21667 4.2085 6.875C4.2085 6.53333 4.49183 6.25 4.8335 6.25H8.95851C9.30017 6.25 9.58351 6.53333 9.58351 6.875C9.58351 7.21667 9.30017 7.5 8.95851 7.5Z" fill="#7E8299"/>
<path d="M8.95851 10.625H4.8335C4.49183 10.625 4.2085 10.3417 4.2085 10C4.2085 9.65833 4.49183 9.375 4.8335 9.375H8.95851C9.30017 9.375 9.58351 9.65833 9.58351 10C9.58351 10.3417 9.30017 10.625 8.95851 10.625Z" fill="#7E8299"/>
<path d="M6.875 18.9585C6.53333 18.9585 6.25 18.6752 6.25 18.3335V15.2085C6.25 14.8668 6.53333 14.5835 6.875 14.5835C7.21667 14.5835 7.5 14.8668 7.5 15.2085V18.3335C7.5 18.6752 7.21667 18.9585 6.875 18.9585Z" fill="#7E8299"/>
<path d="M19.1666 17.7086H17.2749V15.2086C18.0666 14.9503 18.6416 14.2086 18.6416 13.3336V11.6669C18.6416 10.5753 17.7499 9.68359 16.6582 9.68359C15.5666 9.68359 14.6749 10.5753 14.6749 11.6669V13.3336C14.6749 14.2003 15.2416 14.9336 16.0166 15.2003V17.7086H0.833252C0.491585 17.7086 0.208252 17.9919 0.208252 18.3336C0.208252 18.6753 0.491585 18.9586 0.833252 18.9586H16.6082C16.6249 18.9586 16.6332 18.9669 16.6499 18.9669C16.6666 18.9669 16.6749 18.9586 16.6916 18.9586H19.1666C19.5082 18.9586 19.7916 18.6753 19.7916 18.3336C19.7916 17.9919 19.5082 17.7086 19.1666 17.7086Z" fill="#7E8299"/>
</svg>
