<svg width="20" height="20" viewBox="0 0 20 20" fill="none" xmlns="http://www.w3.org/2000/svg">
<path opacity="0.2" d="M6.66667 18.3332H13.3333C15.6333 18.3332 17.5 16.4665 17.5 14.1665V5.83317C17.5 3.53317 15.6333 1.6665 13.3333 1.6665H6.66667C4.36667 1.6665 2.5 3.53317 2.5 5.83317V14.1665C2.5 16.4665 4.36667 18.3332 6.66667 18.3332Z" fill="#7E8299"/>
<path d="M12.5 4.7583H7.50002C6.64168 4.7583 5.93335 5.4583 5.93335 6.32497V7.1583C5.93335 8.01663 6.63335 8.72497 7.50002 8.72497H12.5C13.3583 8.72497 14.0667 8.02497 14.0667 7.1583V6.32497C14.0667 5.4583 13.3667 4.7583 12.5 4.7583Z" fill="#7E8299"/>
<path d="M6.79992 12.433C6.68325 12.433 6.57492 12.408 6.47492 12.3664C6.37492 12.3247 6.28325 12.2664 6.20825 12.1914C6.04992 12.033 5.95825 11.8247 5.95825 11.5997C5.95825 11.4914 5.98325 11.383 6.02492 11.283C6.06659 11.1747 6.12492 11.0914 6.20825 11.008C6.39992 10.8164 6.69159 10.7247 6.95825 10.783C7.00825 10.7914 7.06659 10.808 7.11659 10.833C7.16659 10.8497 7.21659 10.8747 7.25825 10.908C7.30825 10.933 7.34992 10.9747 7.38325 11.008C7.45825 11.0914 7.52492 11.1747 7.56659 11.283C7.60825 11.383 7.62492 11.4914 7.62492 11.5997C7.62492 11.8247 7.54158 12.033 7.38325 12.1914C7.22492 12.3497 7.01658 12.433 6.79992 12.433Z" fill="#7E8299"/>
<path d="M10.1248 12.4336C9.90817 12.4336 9.69984 12.3503 9.5415 12.1919C9.38317 12.0336 9.2915 11.8253 9.2915 11.6003C9.2915 11.3836 9.38317 11.1669 9.5415 11.0086C9.84984 10.7003 10.4082 10.7003 10.7165 11.0086C10.7915 11.0919 10.8582 11.1753 10.8998 11.2836C10.9415 11.3836 10.9582 11.4919 10.9582 11.6003C10.9582 11.8253 10.8748 12.0336 10.7165 12.1919C10.5582 12.3503 10.3498 12.4336 10.1248 12.4336Z" fill="#7E8299"/>
<path d="M13.4583 12.4336C13.2417 12.4336 13.0333 12.3503 12.875 12.1919C12.7167 12.0336 12.625 11.8253 12.625 11.6003C12.625 11.3836 12.7167 11.1669 12.875 11.0086C13.1833 10.7003 13.7417 10.7003 14.05 11.0086C14.2083 11.1669 14.3 11.3836 14.3 11.6003C14.3 11.7086 14.275 11.8169 14.2333 11.9169C14.1917 12.0169 14.1333 12.1086 14.05 12.1919C13.8917 12.3503 13.6833 12.4336 13.4583 12.4336Z" fill="#7E8299"/>
<path d="M6.79992 15.7665C6.57492 15.7665 6.36659 15.6832 6.20825 15.5248C6.04992 15.3665 5.95825 15.1582 5.95825 14.9332C5.95825 14.7165 6.04992 14.4998 6.20825 14.3415C6.28325 14.2665 6.37492 14.2082 6.47492 14.1665C6.68325 14.0832 6.90825 14.0832 7.11659 14.1665C7.16659 14.1832 7.21659 14.2082 7.25825 14.2415C7.30825 14.2665 7.34992 14.3082 7.38325 14.3415C7.54158 14.4998 7.63325 14.7165 7.63325 14.9332C7.63325 15.1582 7.54158 15.3665 7.38325 15.5248C7.22492 15.6832 7.01658 15.7665 6.79992 15.7665Z" fill="#7E8299"/>
<path d="M10.1248 15.767C9.90817 15.767 9.69984 15.6837 9.5415 15.5254C9.38317 15.367 9.2915 15.1587 9.2915 14.9337C9.2915 14.8754 9.29984 14.8254 9.30817 14.767C9.32484 14.717 9.3415 14.667 9.35817 14.617C9.38317 14.567 9.40817 14.517 9.43317 14.467C9.4665 14.4254 9.49984 14.3837 9.5415 14.342C9.6165 14.267 9.70817 14.2087 9.80817 14.167C10.1165 14.042 10.4832 14.1087 10.7165 14.342C10.8748 14.5004 10.9582 14.717 10.9582 14.9337C10.9582 15.1587 10.8748 15.367 10.7165 15.5254C10.6415 15.6004 10.5498 15.6587 10.4498 15.7004C10.3498 15.742 10.2415 15.767 10.1248 15.767Z" fill="#7E8299"/>
<path d="M13.4583 15.767C13.35 15.767 13.2416 15.742 13.1416 15.7004C13.0416 15.6587 12.95 15.6004 12.875 15.5254C12.7166 15.367 12.6333 15.1587 12.6333 14.9337C12.6333 14.717 12.7166 14.5004 12.875 14.342C13.1 14.1087 13.475 14.042 13.7833 14.167C13.8833 14.2087 13.975 14.267 14.05 14.342C14.2083 14.5004 14.2916 14.717 14.2916 14.9337C14.2916 15.1587 14.2083 15.367 14.05 15.5254C13.8916 15.6837 13.6833 15.767 13.4583 15.767Z" fill="#7E8299"/>
</svg>
