<svg width="20" height="20" viewBox="0 0 20 20" fill="none" xmlns="http://www.w3.org/2000/svg">
<path d="M12.5 18.3332C12.1583 18.3332 11.875 18.0498 11.875 17.7082V2.2915C11.875 1.94984 12.1583 1.6665 12.5 1.6665C12.8417 1.6665 13.125 1.94984 13.125 2.2915V17.7082C13.125 18.0498 12.8417 18.3332 12.5 18.3332Z" fill="#7E8299"/>
<path opacity="0.2" d="M5.00008 16.6668H10.0001V3.3335H5.00008C3.15841 3.3335 1.66675 4.82516 1.66675 6.66683V13.3335C1.66675 15.1752 3.15841 16.6668 5.00008 16.6668Z" fill="#7E8299"/>
<path opacity="0.2" d="M15 16.6668H12.5V3.3335H15C16.8417 3.3335 18.3333 4.82516 18.3333 6.66683V13.3335C18.3333 15.1752 16.8417 16.6668 15 16.6668Z" fill="#7E8299"/>
<path d="M5.83325 13.5418C5.49159 13.5418 5.20825 13.2585 5.20825 12.9168V7.0835C5.20825 6.74183 5.49159 6.4585 5.83325 6.4585C6.17492 6.4585 6.45825 6.74183 6.45825 7.0835V12.9168C6.45825 13.2585 6.17492 13.5418 5.83325 13.5418Z" fill="#7E8299"/>
</svg>
