<svg width="20" height="20" viewBox="0 0 20 20" fill="none" xmlns="http://www.w3.org/2000/svg">
<path opacity="0.2" d="M18.3334 6.6665V13.4915C18.3334 16.5248 16.5251 18.3332 13.4917 18.3332H6.50841C3.47508 18.3332 1.66675 16.5248 1.66675 13.4915V6.67484L18.3334 6.6665Z" fill="#7E8299"/>
<path d="M7.49997 14.7917C7.4083 14.7917 7.3083 14.7667 7.22497 14.725C6.5833 14.4 6.0333 13.9167 5.6333 13.3167C5.29997 12.8167 5.29997 12.175 5.6333 11.675C6.0333 11.075 6.5833 10.5917 7.22497 10.275C7.5333 10.1167 7.9083 10.25 8.06663 10.5584C8.22497 10.8667 8.09997 11.2417 7.7833 11.4C7.3333 11.625 6.94997 11.9667 6.67497 12.3834C6.62497 12.4584 6.62497 12.5584 6.67497 12.6417C6.94997 13.0584 7.3333 13.4 7.7833 13.625C8.09163 13.7834 8.21663 14.1584 8.06663 14.4667C7.94997 14.6667 7.72497 14.7917 7.49997 14.7917Z" fill="#7E8299"/>
<path d="M12.6749 14.7915C12.4416 14.7915 12.2249 14.6665 12.1166 14.4499C11.9583 14.1415 12.0833 13.7665 12.3999 13.6082C12.8499 13.3832 13.2333 13.0415 13.5083 12.6249C13.5583 12.5499 13.5583 12.4499 13.5083 12.3665C13.2333 11.9499 12.8499 11.6082 12.3999 11.3832C12.0916 11.2249 11.9666 10.8499 12.1166 10.5415C12.2749 10.2332 12.6499 10.1082 12.9583 10.2582C13.5999 10.5832 14.1499 11.0665 14.5499 11.6665C14.8833 12.1665 14.8833 12.8082 14.5499 13.3082C14.1499 13.9082 13.5999 14.3915 12.9583 14.7082C12.8583 14.7665 12.7666 14.7915 12.6749 14.7915Z" fill="#7E8299"/>
<path d="M18.3334 6.50817V6.6665L1.66675 6.67484V6.50817C1.66675 3.47484 3.47508 1.6665 6.50841 1.6665H13.4917C16.5251 1.6665 18.3334 3.47484 18.3334 6.50817Z" fill="#7E8299"/>
</svg>
