<svg width="30" height="30" viewBox="0 0 30 30" fill="none" xmlns="http://www.w3.org/2000/svg">
<rect width="30" height="30" rx="8" fill="#F8F5FF"/>
<path opacity="0.3" d="M22.8333 11.9584L21.0417 13.7584L16.2417 8.95845L18.0417 7.16678C18.1972 7.00548 18.3835 6.87717 18.5897 6.78954C18.7959 6.70191 19.0176 6.65674 19.2417 6.65674C19.4657 6.65674 19.6874 6.70191 19.8936 6.78954C20.0998 6.87717 20.2862 7.00548 20.4417 7.16678L22.8333 9.55845C22.9946 9.71392 23.123 9.90032 23.2106 10.1065C23.2982 10.3127 23.3434 10.5344 23.3434 10.7584C23.3434 10.9825 23.2982 11.2042 23.2106 11.4104C23.123 11.6166 22.9946 11.803 22.8333 11.9584ZM8.07501 23.2751L13.2417 21.5584L8.44168 16.7584L6.72501 21.9251C6.66209 22.1132 6.65284 22.315 6.69829 22.5081C6.74374 22.7011 6.84209 22.8776 6.98231 23.0178C7.12253 23.158 7.29906 23.2564 7.49207 23.3018C7.68509 23.3473 7.88696 23.338 8.07501 23.2751Z" fill="#7239EA"/>
<path d="M9.64168 22.7502L8.07501 23.2752C7.88696 23.3381 7.68509 23.3473 7.49207 23.3019C7.29906 23.2564 7.12253 23.1581 6.98231 23.0179C6.84209 22.8776 6.74374 22.7011 6.69829 22.5081C6.65284 22.3151 6.66209 22.1132 6.72501 21.9252L7.25001 20.3585L9.64168 22.7502ZM8.44168 16.7585L13.2417 21.5585L21.0417 13.7585L16.2417 8.9585L8.44168 16.7585Z" fill="#7239EA"/>
</svg>
