<svg width="20" height="20" viewBox="0 0 20 20" fill="none" xmlns="http://www.w3.org/2000/svg">
<path d="M10 12.375C11.3117 12.375 12.375 11.3117 12.375 10C12.375 8.68832 11.3117 7.625 10 7.625C8.68832 7.625 7.625 8.68832 7.625 10C7.625 11.3117 8.68832 12.375 10 12.375Z" fill="#F1416C"/>
<path opacity="0.3" d="M10 12.375C11.3117 12.375 12.375 11.3117 12.375 10C12.375 8.68832 11.3117 7.625 10 7.625C8.68832 7.625 7.625 8.68832 7.625 10C7.625 11.3117 8.68832 12.375 10 12.375Z" fill="#F1416C"/>
<path opacity="0.3" d="M10.0001 2.8667C6.05841 2.8667 1.66675 6.7167 1.66675 10C1.66675 13.1334 6.05841 17.1334 10.0001 17.1334C14.1667 17.1334 18.3334 13.3084 18.3334 10C18.3334 6.8167 13.9417 2.8667 10.0001 2.8667ZM10.0001 13.625C9.28312 13.625 8.58227 13.4124 7.98614 13.0141C7.39001 12.6158 6.92539 12.0496 6.65102 11.3873C6.37665 10.7249 6.30486 9.99601 6.44473 9.29283C6.58461 8.58965 6.92985 7.94374 7.43682 7.43677C7.94378 6.92981 8.5897 6.58456 9.29288 6.44469C9.99606 6.30481 10.7249 6.3766 11.3873 6.65097C12.0497 6.92534 12.6158 7.38996 13.0142 7.98609C13.4125 8.58222 13.6251 9.28307 13.6251 10C13.6251 10.9614 13.2432 11.8835 12.5633 12.5633C11.8835 13.2431 10.9615 13.625 10.0001 13.625Z" fill="#F1416C"/>
</svg>
