<svg width="20" height="20" viewBox="0 0 20 20" fill="none" xmlns="http://www.w3.org/2000/svg">
<path opacity="0.2" d="M14 1.6665H5.17505C3.24172 1.6665 1.67505 3.23317 1.67505 5.15817V10.3082V10.4665C1.67505 12.3998 3.24172 13.9582 5.16672 13.9582H8.16672C8.62505 13.9582 9.00005 14.3332 9.00005 14.7915V15.4748C9.00005 15.9332 8.62505 16.3082 8.16672 16.3082H6.29172C5.96672 16.3082 5.70005 16.5748 5.70005 16.8998C5.70005 17.2248 5.96672 17.4915 6.29172 17.4915H12.9C13.225 17.4915 13.4917 17.2248 13.4917 16.8998C13.4917 16.5748 13.225 16.3082 12.9 16.3082H11.025C10.5667 16.3082 10.1917 15.9332 10.1917 15.4748V14.7915C10.1917 14.3332 10.5667 13.9582 11.025 13.9582H14C15.9334 13.9582 17.4917 12.3915 17.4917 10.4665V10.3082V5.15817C17.4917 3.23317 15.925 1.6665 14 1.6665Z" fill="#7E8299"/>
<path d="M16.3667 7.9165H11.9584C10.5167 7.9165 9.9917 8.4415 9.9917 9.89984V16.3415C9.9917 17.8082 10.5084 18.3248 11.9584 18.3248H16.3667C17.8084 18.3248 18.3334 17.7998 18.3334 16.3415V9.89984C18.3334 8.43317 17.8167 7.9165 16.3667 7.9165ZM14.1667 16.9332C13.6584 16.9332 13.25 16.5248 13.25 16.0165C13.25 15.5082 13.6584 15.0998 14.1667 15.0998C14.675 15.0998 15.0834 15.5082 15.0834 16.0165C15.0834 16.5248 14.675 16.9332 14.1667 16.9332Z" fill="#7E8299"/>
<path opacity="0.4" d="M15.0833 16.0168C15.0833 16.5251 14.675 16.9334 14.1667 16.9334C13.6583 16.9334 13.25 16.5251 13.25 16.0168C13.25 15.5084 13.6583 15.1001 14.1667 15.1001C14.675 15.1001 15.0833 15.5168 15.0833 16.0168Z" fill="#7E8299"/>
</svg>
