<svg width="20" height="20" viewBox="0 0 20 20" fill="none" xmlns="http://www.w3.org/2000/svg">
<path opacity="0.3" d="M18.0502 8.70041L17.2336 12.1837C16.5336 15.1921 15.1502 16.4087 12.5502 16.1587C12.1336 16.1254 11.6836 16.0504 11.2002 15.9337L9.80023 15.6004C6.32523 14.7754 5.25023 13.0587 6.0669 9.57541L6.88356 6.08375C7.05023 5.37541 7.25023 4.75875 7.50023 4.25041C8.47523 2.23375 10.1336 1.69208 12.9169 2.35041L14.3086 2.67541C17.8002 3.49208 18.8669 5.21708 18.0502 8.70041Z" fill="#7E8299"/>
<path d="M12.5498 16.1578C12.0331 16.5078 11.3831 16.7995 10.5915 17.0578L9.2748 17.4912C5.96646 18.5578 4.2248 17.6662 3.1498 14.3578L2.08313 11.0662C1.01646 7.75785 1.8998 6.00784 5.20813 4.94118L6.5248 4.50784C6.86646 4.39951 7.19146 4.30785 7.4998 4.24951C7.2498 4.75785 7.0498 5.37451 6.88313 6.08285L6.06646 9.57451C5.2498 13.0578 6.3248 14.7745 9.7998 15.5995L11.1998 15.9328C11.6831 16.0495 12.1331 16.1245 12.5498 16.1578Z" fill="#7E8299"/>
<path d="M14.5749 8.75815C14.5249 8.75815 14.4749 8.74981 14.4166 8.74148L10.3749 7.71648C10.0416 7.63315 9.84156 7.29148 9.9249 6.95815C10.0082 6.62481 10.3499 6.42481 10.6832 6.50815L14.7249 7.53315C15.0582 7.61648 15.2582 7.95815 15.1749 8.29148C15.1082 8.56648 14.8499 8.75815 14.5749 8.75815Z" fill="#7E8299"/>
<path d="M12.1335 11.5759C12.0835 11.5759 12.0335 11.5676 11.9752 11.5592L9.55019 10.9426C9.21686 10.8592 9.01686 10.5176 9.10019 10.1842C9.18352 9.85089 9.52519 9.65089 9.85852 9.73422L12.2835 10.3509C12.6169 10.4342 12.8169 10.7759 12.7335 11.1092C12.6669 11.3926 12.4169 11.5759 12.1335 11.5759Z" fill="#7E8299"/>
</svg>
