<svg width="20" height="20" viewBox="0 0 20 20" fill="none" xmlns="http://www.w3.org/2000/svg">
<path opacity="0.3" d="M17.8334 6.95845L16.0417 8.75845L11.2417 3.95845L13.0417 2.16678C13.1972 2.00548 13.3836 1.87717 13.5898 1.78954C13.7959 1.70191 14.0177 1.65674 14.2417 1.65674C14.4657 1.65674 14.6875 1.70191 14.8937 1.78954C15.0998 1.87717 15.2862 2.00548 15.4417 2.16678L17.8334 4.55845C17.9947 4.71392 18.123 4.90032 18.2106 5.1065C18.2983 5.31268 18.3434 5.53442 18.3434 5.75845C18.3434 5.98248 18.2983 6.20421 18.2106 6.4104C18.123 6.61658 17.9947 6.80298 17.8334 6.95845ZM3.07504 18.2751L8.24171 16.5584L3.44171 11.7584L1.72504 16.9251C1.66212 17.1132 1.65287 17.315 1.69832 17.5081C1.74377 17.7011 1.84212 17.8776 1.98234 18.0178C2.12256 18.158 2.29909 18.2564 2.49211 18.3018C2.68512 18.3473 2.88699 18.338 3.07504 18.2751Z" fill="#7E8299"/>
<path d="M4.64171 17.7502L3.07504 18.2752C2.88699 18.3381 2.68512 18.3473 2.49211 18.3019C2.29909 18.2564 2.12256 18.1581 1.98234 18.0179C1.84212 17.8776 1.74377 17.7011 1.69832 17.5081C1.65287 17.3151 1.66212 17.1132 1.72504 16.9252L2.25004 15.3585L4.64171 17.7502ZM3.44171 11.7585L8.24171 16.5585L16.0417 8.7585L11.2417 3.9585L3.44171 11.7585Z" fill="#7E8299"/>
</svg>
