<svg width="20" height="20" viewBox="0 0 20 20" fill="none" xmlns="http://www.w3.org/2000/svg">
<path opacity="0.2" d="M9.1335 1.75816L4.55016 3.47482C3.67516 3.80816 2.9585 4.84149 2.9585 5.78316V12.5332C2.9585 13.2082 3.40016 14.0998 3.94183 14.4998L8.52516 17.9248C9.3335 18.5332 10.6585 18.5332 11.4668 17.9248L16.0502 14.4998C16.5918 14.0915 17.0335 13.2082 17.0335 12.5332V5.78316C17.0335 4.84982 16.3168 3.80816 15.4418 3.48316L10.8585 1.76649C10.3918 1.58316 9.6085 1.58316 9.1335 1.75816Z" fill="#7E8299"/>
<path d="M10.0001 13.5417C7.81675 13.5417 6.04175 11.7667 6.04175 9.58333C6.04175 7.4 7.81675 5.625 10.0001 5.625C12.1834 5.625 13.9584 7.4 13.9584 9.58333C13.9584 11.7667 12.1834 13.5417 10.0001 13.5417ZM10.0001 6.875C8.50841 6.875 7.29175 8.09167 7.29175 9.58333C7.29175 11.075 8.50841 12.2917 10.0001 12.2917C11.4917 12.2917 12.7084 11.075 12.7084 9.58333C12.7084 8.09167 11.4917 6.875 10.0001 6.875Z" fill="#7E8299"/>
<path d="M9.16657 11.0415C8.95824 11.0415 8.7499 10.9331 8.63324 10.7415C8.45824 10.4415 8.5499 10.0581 8.8499 9.88314L9.48324 9.4998C9.5499 9.45814 9.58324 9.39147 9.58324 9.3248V8.5498C9.58324 8.20814 9.86657 7.9248 10.2082 7.9248C10.5499 7.9248 10.8332 8.1998 10.8332 8.54147V9.31647C10.8332 9.8248 10.5582 10.3081 10.1249 10.5665L9.48324 10.9498C9.39157 11.0165 9.2749 11.0415 9.16657 11.0415Z" fill="#7E8299"/>
</svg>
