<svg width="30" height="30" viewBox="0 0 30 30" fill="none" xmlns="http://www.w3.org/2000/svg">
<rect width="30" height="30" rx="8" fill="#F4FAF9"/>
<path d="M15 23.9582C10.0583 23.9582 6.04166 19.9415 6.04166 14.9998C6.04166 13.0332 6.66666 11.1665 7.84999 9.59984C8.05832 9.32484 8.44999 9.27484 8.72499 9.48317C8.99999 9.6915 9.05832 10.0832 8.84999 10.3582C7.83332 11.6998 7.29166 13.3082 7.29166 14.9998C7.29166 19.2498 10.75 22.7082 15 22.7082C19.25 22.7082 22.7083 19.2498 22.7083 14.9998C22.7083 10.7498 19.25 7.2915 15 7.2915C14.6583 7.2915 14.375 7.00817 14.375 6.6665C14.375 6.32484 14.6583 6.0415 15 6.0415C19.9417 6.0415 23.9583 10.0582 23.9583 14.9998C23.9583 19.9415 19.9417 23.9582 15 23.9582Z" fill="#48B29A"/>
<path opacity="0.3" d="M15 21.4582C11.4417 21.4582 8.54166 18.5582 8.54166 14.9998C8.54166 14.6582 8.82499 14.3748 9.16666 14.3748C9.50832 14.3748 9.79166 14.6582 9.79166 14.9998C9.79166 17.8748 12.125 20.2082 15 20.2082C17.875 20.2082 20.2083 17.8748 20.2083 14.9998C20.2083 12.1248 17.875 9.7915 15 9.7915C14.6583 9.7915 14.375 9.50817 14.375 9.1665C14.375 8.82484 14.6583 8.5415 15 8.5415C18.5583 8.5415 21.4583 11.4415 21.4583 14.9998C21.4583 18.5582 18.5583 21.4582 15 21.4582Z" fill="#48B29A"/>
<path d="M15 18.9582C14.6583 18.9582 14.375 18.6748 14.375 18.3332C14.375 17.9915 14.6583 17.7082 15 17.7082C16.4917 17.7082 17.7083 16.4915 17.7083 14.9998C17.7083 13.5082 16.4917 12.2915 15 12.2915C14.6583 12.2915 14.375 12.0082 14.375 11.6665C14.375 11.3248 14.6583 11.0415 15 11.0415C17.1833 11.0415 18.9583 12.8165 18.9583 14.9998C18.9583 17.1832 17.1833 18.9582 15 18.9582Z" fill="#48B29A"/>
</svg>
