<svg width="20" height="20" viewBox="0 0 20 20" fill="none" xmlns="http://www.w3.org/2000/svg">
<path opacity="0.2" d="M13.4917 1.6665H6.50841C3.47508 1.6665 1.66675 3.47484 1.66675 6.50817V13.4832C1.66675 16.5248 3.47508 18.3332 6.50841 18.3332H13.4834C16.5167 18.3332 18.3251 16.5248 18.3251 13.4915V6.50817C18.3334 3.47484 16.5251 1.6665 13.4917 1.6665Z" fill="#7E8299"/>
<path d="M5.73315 15.7499C5.39149 15.7499 5.10815 15.4666 5.10815 15.1249V13.3999C5.10815 13.0582 5.39149 12.7749 5.73315 12.7749C6.07482 12.7749 6.35815 13.0582 6.35815 13.3999V15.1249C6.35815 15.4749 6.07482 15.7499 5.73315 15.7499Z" fill="#7E8299"/>
<path d="M10 15.7498C9.65833 15.7498 9.375 15.4665 9.375 15.1248V11.6665C9.375 11.3248 9.65833 11.0415 10 11.0415C10.3417 11.0415 10.625 11.3248 10.625 11.6665V15.1248C10.625 15.4748 10.3417 15.7498 10 15.7498Z" fill="#7E8299"/>
<path d="M14.2668 15.7502C13.9252 15.7502 13.6418 15.4669 13.6418 15.1252V9.94189C13.6418 9.60023 13.9252 9.31689 14.2668 9.31689C14.6085 9.31689 14.8918 9.60023 14.8918 9.94189V15.1252C14.8918 15.4752 14.6168 15.7502 14.2668 15.7502Z" fill="#7E8299"/>
<path d="M14.8917 4.85C14.8917 4.80833 14.8751 4.75833 14.8667 4.71667C14.8584 4.68333 14.8501 4.64167 14.8417 4.60833C14.8251 4.575 14.8001 4.55 14.7834 4.51667C14.7584 4.48333 14.7334 4.44167 14.7001 4.41667C14.6917 4.40833 14.6917 4.4 14.6834 4.4C14.6584 4.38333 14.6334 4.375 14.6084 4.35833C14.5751 4.33333 14.5334 4.30833 14.4917 4.29167C14.4501 4.275 14.4084 4.275 14.3667 4.26667C14.3334 4.25833 14.3084 4.25 14.2751 4.25H11.8334C11.4917 4.25 11.2084 4.53333 11.2084 4.875C11.2084 5.21667 11.4917 5.5 11.8334 5.5H12.8751C10.8917 7.58333 8.39173 9.05 5.5834 9.75833C5.25006 9.84167 5.04173 10.1833 5.12506 10.5167C5.19173 10.8 5.45006 10.9917 5.7334 10.9917C5.7834 10.9917 5.8334 10.9833 5.8834 10.975C8.8584 10.2333 11.5167 8.69167 13.6417 6.50833V7.31667C13.6417 7.65833 13.9251 7.94167 14.2667 7.94167C14.6084 7.94167 14.8917 7.65833 14.8917 7.31667V4.875C14.8917 4.86667 14.8917 4.85833 14.8917 4.85Z" fill="#7E8299"/>
</svg>
