<svg width="30" height="30" viewBox="0 0 30 30" fill="none" xmlns="http://www.w3.org/2000/svg">
<rect width="30" height="30" rx="8" fill="#EEF4FF"/>
<path d="M20.8917 9.10812C21.7046 9.91851 22.3403 10.889 22.7583 11.9581L19.7167 14.9998L11.9583 7.24145C13.4676 6.65003 15.1165 6.51162 16.7032 6.84317C18.29 7.17472 19.7455 7.96184 20.8917 9.10812ZM7.24166 18.0414C7.64094 19.0643 8.2384 19.9981 8.99972 20.7893C9.76103 21.5804 10.6712 22.2134 11.6779 22.6517C12.6846 23.09 13.768 23.325 14.8658 23.3433C15.9637 23.3615 17.0543 23.1627 18.075 22.7581L10.2833 14.9998L7.24166 18.0414Z" fill="#0660FC"/>
<path opacity="0.3" d="M11.9583 7.24134L15 10.283L7.24167 18.0413C6.8371 17.0206 6.63824 15.93 6.65651 14.8322C6.67478 13.7343 6.90982 12.6509 7.34812 11.6442C7.78643 10.6375 8.41935 9.72738 9.21052 8.96606C10.0017 8.20474 10.9355 7.60728 11.9583 7.20801V7.24134ZM15 19.7413L18.0417 22.783C19.0645 22.3837 19.9983 21.7863 20.7895 21.025C21.5806 20.2636 22.2136 19.3535 22.6519 18.3468C23.0902 17.3401 23.3252 16.2567 23.3435 15.1588C23.3618 14.061 23.1629 12.9704 22.7583 11.9497L15 19.7413Z" fill="#0660FC"/>
</svg>
