<svg width="30" height="30" viewBox="0 0 30 30" fill="none" xmlns="http://www.w3.org/2000/svg">
<rect width="30" height="30" rx="8" fill="#F1F1F2"/>
<path d="M15 14.9998C17.3012 14.9998 19.1666 13.1344 19.1666 10.8332C19.1666 8.53198 17.3012 6.6665 15 6.6665C12.6988 6.6665 10.8333 8.53198 10.8333 10.8332C10.8333 13.1344 12.6988 14.9998 15 14.9998Z" fill="#7E8299"/>
<path opacity="0.2" d="M14.9999 17.0835C10.8249 17.0835 7.42493 19.8835 7.42493 23.3335C7.42493 23.5668 7.60826 23.7502 7.84159 23.7502H22.1583C22.3916 23.7502 22.575 23.5668 22.575 23.3335C22.575 19.8835 19.1749 17.0835 14.9999 17.0835Z" fill="#7E8299"/>
<path d="M22.8583 17.2833C22.1083 16.5333 21.5167 16.7749 21.0084 17.2833L18.0583 20.2333C17.9417 20.35 17.8333 20.5666 17.8083 20.7249L17.65 21.8499C17.5917 22.2583 17.875 22.5416 18.2833 22.4833L19.4083 22.3249C19.5667 22.2999 19.7917 22.1916 19.9 22.0749L22.85 19.125C23.3667 18.625 23.6083 18.0333 22.8583 17.2833Z" fill="#7E8299"/>
</svg>
