<svg width="20" height="20" viewBox="0 0 20 20" fill="none" xmlns="http://www.w3.org/2000/svg">
<path d="M9.99992 9.99984C12.3011 9.99984 14.1666 8.13436 14.1666 5.83317C14.1666 3.53198 12.3011 1.6665 9.99992 1.6665C7.69873 1.6665 5.83325 3.53198 5.83325 5.83317C5.83325 8.13436 7.69873 9.99984 9.99992 9.99984Z" fill="#7E8299"/>
<path opacity="0.2" d="M10.0001 12.0835C5.82507 12.0835 2.42505 14.8835 2.42505 18.3335C2.42505 18.5668 2.60838 18.7502 2.84172 18.7502H17.1584C17.3918 18.7502 17.5751 18.5668 17.5751 18.3335C17.5751 14.8835 14.1751 12.0835 10.0001 12.0835Z" fill="#7E8299"/>
<path d="M17.8583 12.2828C17.1083 11.5328 16.5166 11.7745 16.0083 12.2828L13.0583 15.2328C12.9416 15.3495 12.8333 15.5661 12.8083 15.7245L12.6499 16.8494C12.5916 17.2578 12.875 17.5411 13.2833 17.4828L14.4083 17.3244C14.5666 17.2994 14.7916 17.1911 14.9 17.0745L17.8499 14.1245C18.3666 13.6245 18.6083 13.0328 17.8583 12.2828Z" fill="#7E8299"/>
</svg>
