<svg width="30" height="30" viewBox="0 0 30 30" fill="none" xmlns="http://www.w3.org/2000/svg">
<rect width="30" height="30" rx="8" fill="#FFF5F8"/>
<path d="M15 17.375C16.3117 17.375 17.375 16.3117 17.375 15C17.375 13.6883 16.3117 12.625 15 12.625C13.6883 12.625 12.625 13.6883 12.625 15C12.625 16.3117 13.6883 17.375 15 17.375Z" fill="#F1416C"/>
<path opacity="0.3" d="M15 17.375C16.3117 17.375 17.375 16.3117 17.375 15C17.375 13.6883 16.3117 12.625 15 12.625C13.6883 12.625 12.625 13.6883 12.625 15C12.625 16.3117 13.6883 17.375 15 17.375Z" fill="#F1416C"/>
<path opacity="0.3" d="M15 7.8667C11.0584 7.8667 6.66669 11.7167 6.66669 15C6.66669 18.1334 11.0584 22.1334 15 22.1334C19.1667 22.1334 23.3334 18.3084 23.3334 15C23.3334 11.8167 18.9417 7.8667 15 7.8667ZM15 18.625C14.2831 18.625 13.5822 18.4124 12.9861 18.0141C12.3899 17.6158 11.9253 17.0496 11.651 16.3873C11.3766 15.7249 11.3048 14.996 11.4447 14.2928C11.5845 13.5896 11.9298 12.9437 12.4368 12.4368C12.9437 11.9298 13.5896 11.5846 14.2928 11.4447C14.996 11.3048 15.7249 11.3766 16.3872 11.651C17.0496 11.9253 17.6158 12.39 18.0141 12.9861C18.4124 13.5822 18.625 14.2831 18.625 15C18.625 15.9614 18.2431 16.8835 17.5633 17.5633C16.8835 18.2431 15.9614 18.625 15 18.625Z" fill="#F1416C"/>
</svg>
