<svg width="22" height="22" viewBox="0 0 22 22" fill="none" xmlns="http://www.w3.org/2000/svg">
<rect width="22" height="22" rx="11" fill="#F1F1F2"/>
<path opacity="0.3" d="M7.34497 15.75L6.74997 15.95C6.65238 15.9839 6.54721 15.9896 6.44652 15.9665C6.34583 15.9434 6.25367 15.8924 6.18062 15.8193C6.10757 15.7463 6.05657 15.6541 6.03346 15.5534C6.01036 15.4527 6.01608 15.3476 6.04997 15.25L6.24997 14.655C6.36301 14.3094 6.55668 13.9958 6.81497 13.74L8.59497 11.96L10.04 13.405L8.25997 15.185C8.00414 15.4433 7.6905 15.6369 7.34497 15.75Z" fill="#A1A5B7"/>
<path d="M15.8301 9.06527L12.9351 6.17027C12.8884 6.12111 12.8321 6.08195 12.7698 6.0552C12.7075 6.02845 12.6404 6.01465 12.5726 6.01465C12.5048 6.01465 12.4376 6.02845 12.3753 6.0552C12.313 6.08195 12.2568 6.12111 12.2101 6.17027L11.8501 6.53027C11.8009 6.57698 11.7618 6.63321 11.735 6.69553C11.7082 6.75785 11.6944 6.82496 11.6944 6.89277C11.6944 6.96059 11.7082 7.0277 11.735 7.09002C11.7618 7.15234 11.8009 7.20856 11.8501 7.25527L12.2101 7.61527L10.6301 9.19527C10.1474 8.96579 9.61329 8.86587 9.08029 8.90532C8.54728 8.94477 8.03372 9.12223 7.59007 9.42027C7.4788 9.49544 7.38543 9.59418 7.3166 9.70948C7.24777 9.82479 7.20516 9.95383 7.1918 10.0874C7.17844 10.2211 7.19465 10.356 7.23928 10.4826C7.28392 10.6093 7.35589 10.7246 7.45007 10.8203L11.1801 14.5503C11.2758 14.6445 11.3911 14.7164 11.5177 14.7611C11.6444 14.8057 11.7793 14.8219 11.9129 14.8086C12.0465 14.7952 12.1756 14.7526 12.2909 14.6837C12.4062 14.6149 12.5049 14.5215 12.5801 14.4103C12.8781 13.9666 13.0556 13.4531 13.095 12.9201C13.1345 12.3871 13.0346 11.853 12.8051 11.3703L14.3851 9.79027L14.7451 10.1503C14.7918 10.1994 14.848 10.2386 14.9103 10.2653C14.9726 10.2921 15.0398 10.3059 15.1076 10.3059C15.1754 10.3059 15.2425 10.2921 15.3048 10.2653C15.3671 10.2386 15.4234 10.1994 15.4701 10.1503L15.8301 9.79027C15.8792 9.74356 15.9184 9.68734 15.9451 9.62502C15.9719 9.5627 15.9857 9.49559 15.9857 9.42777C15.9857 9.35996 15.9719 9.29285 15.9451 9.23053C15.9184 9.16821 15.8792 9.11198 15.8301 9.06527Z" fill="#A1A5B7"/>
</svg>
