<svg width="22" height="22" viewBox="0 0 22 22" fill="none" xmlns="http://www.w3.org/2000/svg">
<rect width="22" height="22" rx="11" fill="#F1F1F2"/>
<g opacity="0.3">
<path d="M13.4079 15.998H6.49792C6.36532 15.998 6.23814 15.9454 6.14437 15.8516C6.0506 15.7578 5.99792 15.6307 5.99792 15.498V8.58805C5.99792 7.90114 6.2708 7.24236 6.75652 6.75664C7.24224 6.27092 7.90101 5.99805 8.58792 5.99805H13.4079C13.748 5.99805 14.0848 6.06504 14.3991 6.1952C14.7133 6.32536 14.9988 6.51614 15.2393 6.75664C15.4798 6.99714 15.6706 7.28266 15.8008 7.5969C15.9309 7.91113 15.9979 8.24792 15.9979 8.58805V13.408C15.9979 13.7482 15.9309 14.085 15.8008 14.3992C15.6706 14.7134 15.4798 14.9989 15.2393 15.2395C14.9988 15.48 14.7133 15.6707 14.3991 15.8009C14.0848 15.9311 13.748 15.998 13.4079 15.998Z" fill="#7E8299"/>
</g>
<path d="M13.3779 10.123H8.61792C8.51846 10.123 8.42308 10.0835 8.35276 10.0132C8.28243 9.94289 8.24292 9.8475 8.24292 9.74805C8.24292 9.64859 8.28243 9.55321 8.35276 9.48288C8.42308 9.41256 8.51846 9.37305 8.61792 9.37305H13.3779C13.4774 9.37305 13.5728 9.41256 13.6431 9.48288C13.7134 9.55321 13.7529 9.64859 13.7529 9.74805C13.7529 9.8475 13.7134 9.94289 13.6431 10.0132C13.5728 10.0835 13.4774 10.123 13.3779 10.123Z" fill="#7E8299"/>
<path d="M11.7929 12.623H8.61792C8.51846 12.623 8.42308 12.5835 8.35276 12.5132C8.28243 12.4429 8.24292 12.3475 8.24292 12.248C8.24292 12.1486 8.28243 12.0532 8.35276 11.9829C8.42308 11.9126 8.51846 11.873 8.61792 11.873H11.7929C11.8924 11.873 11.9878 11.9126 12.0581 11.9829C12.1284 12.0532 12.1679 12.1486 12.1679 12.248C12.1679 12.3475 12.1284 12.4429 12.0581 12.5132C11.9878 12.5835 11.8924 12.623 11.7929 12.623Z" fill="#7E8299"/>
</svg>
