<svg width="22" height="22" viewBox="0 0 22 22" fill="none" xmlns="http://www.w3.org/2000/svg">
<rect width="22" height="22" rx="11" fill="#F1F1F2"/>
<path opacity="0.3" d="M16 11H13.635C13.3086 10.9917 12.9872 10.9184 12.6895 10.7843C12.3919 10.6503 12.1239 10.4582 11.9014 10.2194C11.6788 9.98054 11.5061 9.69971 11.3934 9.39331C11.2807 9.08692 11.2303 8.76113 11.245 8.435V6H8.78999C8.04203 6.01054 7.32867 6.31679 6.80586 6.85178C6.28304 7.38677 5.99331 8.107 5.99999 8.855V13.145C5.99331 13.893 6.28304 14.6132 6.80586 15.1482C7.32867 15.6832 8.04203 15.9895 8.78999 16H13.2C13.9493 15.9908 14.6644 15.6853 15.1891 15.1503C15.7138 14.6153 16.0053 13.8943 16 13.145V11Z" fill="#A1A5B7"/>
<path d="M16 10.215H13.635C13.4078 10.2081 13.1842 10.1555 12.9777 10.0602C12.7713 9.96486 12.5862 9.82887 12.4335 9.66034C12.2809 9.49181 12.1638 9.29421 12.0893 9.07937C12.0148 8.86452 11.9845 8.63686 12 8.41V6L16 10.215ZM9.66504 10.405L9.60004 10.365H9.56004C9.51766 10.3456 9.47165 10.3354 9.42504 10.335H9.38504C9.3502 10.3303 9.31488 10.3303 9.28004 10.335L9.23004 10.365H9.18004L7.65004 11.635C7.6109 11.6661 7.57828 11.7047 7.55407 11.7485C7.52987 11.7922 7.51453 11.8403 7.50896 11.89C7.50338 11.9397 7.50768 11.9901 7.52159 12.0381C7.5355 12.0861 7.55877 12.131 7.59004 12.17C7.62367 12.2152 7.66743 12.2518 7.71779 12.277C7.76816 12.3022 7.82373 12.3152 7.88004 12.315C7.96579 12.3144 8.04873 12.2844 8.11504 12.23L9.03504 11.5V14.095C9.03504 14.1945 9.07455 14.2898 9.14487 14.3602C9.2152 14.4305 9.31058 14.47 9.41004 14.47C9.5095 14.47 9.60488 14.4305 9.6752 14.3602C9.74553 14.2898 9.78504 14.1945 9.78504 14.095V11.525L10.585 12.22C10.6221 12.2529 10.6654 12.278 10.7124 12.2939C10.7594 12.3097 10.8091 12.316 10.8585 12.3122C10.9079 12.3085 10.9561 12.2949 11.0002 12.2722C11.0443 12.2494 11.0833 12.2181 11.115 12.18C11.1796 12.1023 11.2115 12.0026 11.204 11.9019C11.1966 11.8012 11.1503 11.7073 11.075 11.64L9.66504 10.405Z" fill="#A1A5B7"/>
</svg>
